<?xml version="1.0" encoding="UTF-8"?>
<svg version="1.1" xmlns="http://www.w3.org/2000/svg" width="980" height="980">
<path d="M0 0 C323.4 0 646.8 0 980 0 C980 323.4 980 646.8 980 980 C656.6 980 333.2 980 0 980 C0 656.6 0 333.2 0 0 Z " fill="#FEFEFE" transform="translate(0,0)"/>
<path d="M0 0 C0.69670807 -0.00067474 1.39341614 -0.00134949 2.11123657 -0.00204468 C31.29345774 0.04248419 59.4041573 6.79505905 86.5625 17.25 C87.83287109 17.7140625 87.83287109 17.7140625 89.12890625 18.1875 C96.27649828 20.95299791 102.95306816 24.48263974 109.6875 28.125 C111.064823 28.86556641 111.064823 28.86556641 112.4699707 29.62109375 C118.81485937 33.10416082 124.69326055 37.02303591 130.5625 41.25 C131.7540105 42.07005047 132.94774257 42.88689068 134.14453125 43.69921875 C141.55305266 48.83232972 148.21409573 54.35299405 154.72265625 60.5859375 C157.49130604 63.26659478 157.49130604 63.26659478 160.43359375 65.4765625 C161.13613281 66.06179688 161.83867188 66.64703125 162.5625 67.25 C162.5625 67.91 162.5625 68.57 162.5625 69.25 C163.2225 69.25 163.8825 69.25 164.5625 69.25 C164.49289062 68.56035156 164.42328125 67.87070312 164.3515625 67.16015625 C163.97104462 60.55545302 164.73371255 56.42284592 168.80078125 51.1328125 C172.9001455 46.75167377 176.47931097 45.05426147 182.5 44.75 C188.50706718 45.05080913 192.94693745 46.60182223 197.21690369 50.92503357 C202.62398735 58.02565279 202.39007438 65.19086927 202.25390625 73.72265625 C202.25032161 75.21520122 202.24897332 76.70775305 202.2497406 78.20030212 C202.24507162 81.31471702 202.22040626 84.42808481 202.17993164 87.54223633 C202.12891885 91.51542982 202.11749146 95.48747862 202.11976719 99.46096134 C202.11894788 102.53843422 202.10243827 105.61566156 202.08076286 108.69305229 C202.07128113 110.15732407 202.06531915 111.62162338 202.06308174 113.08592415 C202.00918047 129.91703026 202.00918047 129.91703026 196.375 137 C189.94688472 142.14249223 184.9126492 143.94328657 176.5625 143.25 C172.19124626 142.54111834 167.88370112 141.58927158 163.5625 140.625 C160.9969285 140.06592871 158.43103358 139.50977126 155.86328125 138.9609375 C155.19750565 138.81839539 154.53173004 138.67585327 153.84577942 138.5289917 C148.78522797 137.46402395 143.70768142 136.56690017 138.60546875 135.7265625 C137.1139306 135.47608431 135.62239413 135.2255961 134.13085938 134.97509766 C131.96055998 134.61180006 129.79043642 134.25615563 127.61499023 133.92498779 C119.5091593 132.68890313 112.37384793 131.51121486 106.5625 125.25 C103.04045476 120.36176092 101.84982653 115.73616979 102.109375 109.7109375 C103.11689024 104.2390875 106.19683291 100.51811944 110.1875 96.8125 C117.40032513 92.06722031 127.41895484 94.27970526 135.5625 95.25 C134.325 94.074375 134.325 94.074375 133.0625 92.875 C130.5625 90.25 130.5625 90.25 130.5625 88.25 C129.50095703 87.90775391 129.50095703 87.90775391 128.41796875 87.55859375 C125.01756013 86.00026695 122.6013096 83.80481755 119.875 81.3125 C107.70257739 70.63969433 93.17756704 63.03937682 78.5625 56.25 C76.80679688 55.43402344 76.80679688 55.43402344 75.015625 54.6015625 C62.01060925 48.80520933 48.57405791 44.76525938 34.5625 42.25 C33.81967773 42.11319824 33.07685547 41.97639648 32.31152344 41.83544922 C-6.65890251 34.84095958 -47.71984005 40.21150699 -83.4375 57.25 C-84.62859375 57.80558594 -85.8196875 58.36117187 -87.046875 58.93359375 C-103.06881732 66.64192822 -117.26061711 76.92000597 -130.8125 88.375 C-131.38355469 88.85364502 -131.95460938 89.33229004 -132.54296875 89.82543945 C-136.14783026 92.92112483 -139.20613066 96.20281854 -142.16259766 99.92529297 C-142.58331543 100.36244629 -143.0040332 100.79959961 -143.4375 101.25 C-144.0975 101.25 -144.7575 101.25 -145.4375 101.25 C-145.66566406 101.79398437 -145.89382813 102.33796875 -146.12890625 102.8984375 C-147.48159797 105.3292447 -149.10783229 107.24771974 -150.96533203 109.30761719 C-158.3781851 117.54982653 -163.96536963 126.64640087 -169.4375 136.25 C-169.84242676 136.95141113 -170.24735352 137.65282227 -170.66455078 138.37548828 C-179.98571528 154.65194184 -186.46995417 171.93380543 -190.4375 190.25 C-190.72367187 191.48621094 -191.00984375 192.72242188 -191.3046875 193.99609375 C-194.01418552 205.98239689 -194.64261094 217.55226007 -194.625 229.8125 C-194.62472809 230.52342804 -194.62445618 231.23435608 -194.62417603 231.96682739 C-194.60557098 242.54148893 -194.16626515 252.79983633 -192.4375 263.25 C-192.27765625 264.51714844 -192.1178125 265.78429687 -191.953125 267.08984375 C-185.62751379 313.70411771 -157.02031532 357.49906261 -120.4375 386.25 C-117.1790518 388.71141771 -113.855929 391.01744295 -110.4375 393.25 C-109.62539063 393.79785156 -108.81328125 394.34570312 -107.9765625 394.91015625 C-89.46697743 407.11091878 -69.64980717 415.67503056 -48.1875 421.125 C-47.06432373 421.41133301 -45.94114746 421.69766602 -44.78393555 421.99267578 C-30.23755165 425.50594808 -15.78699794 426.72148005 -0.875 426.75 C0.31414505 426.75351974 0.31414505 426.75351974 1.52731323 426.7571106 C25.05900302 426.72864425 47.75608801 422.22155509 69.5625 413.25 C70.26858398 412.96511719 70.97466797 412.68023438 71.70214844 412.38671875 C105.63150065 398.58174312 137.6952602 375.15721505 157.625 344 C161.26789927 338.38599291 165.47386237 333.29431882 171.5625 330.25 C177.85574485 329.54579838 183.80687674 329.02463855 189.125 332.875 C190.97265625 334.5625 190.97265625 334.5625 192.5625 336.25 C193.3875 337.11625 194.2125 337.9825 195.0625 338.875 C197.45818416 344.26528936 197.98231194 350.51717476 195.84765625 356.12939453 C193.38314692 361.35369413 190.11324188 365.84320874 186.5625 370.375 C185.99217041 371.11000732 185.42184082 371.84501465 184.83422852 372.60229492 C172.79161313 388.00440252 160.03924812 402.20386607 144.5625 414.25 C143.23693249 415.30462883 141.91141514 416.35932072 140.5859375 417.4140625 C132.54707561 423.75121393 124.56007168 429.45294576 115.48339844 434.23144531 C113.34216275 435.36683363 111.22256585 436.53821104 109.1015625 437.7109375 C88.47281332 448.99780419 66.24569237 456.87759591 43.1875 461.5625 C42.4651416 461.70969482 41.7427832 461.85688965 40.99853516 462.00854492 C27.10256296 464.63265724 13.30124236 465.60829602 -0.8125 465.5 C-1.57840454 465.49590118 -2.34430908 465.49180237 -3.13342285 465.48757935 C-39.38115275 465.26097214 -74.47928838 457.48137621 -106.59619141 440.23388672 C-108.49512066 439.21921092 -110.40750168 438.2345188 -112.32421875 437.25390625 C-129.36248544 428.46804787 -144.3846873 417.24017718 -158.4375 404.25 C-159.4171875 403.38503906 -160.396875 402.52007813 -161.40625 401.62890625 C-167.22678337 396.47189156 -172.40868432 391.20913868 -177.20703125 385.05078125 C-179.02184632 382.77193291 -180.88776215 380.61859996 -182.83203125 378.453125 C-186.37743782 374.42470591 -189.38324739 370.17701591 -192.3125 365.6875 C-192.8286084 364.90157471 -193.3447168 364.11564941 -193.87646484 363.3059082 C-195.40743972 360.96061021 -196.92513406 358.60733152 -198.4375 356.25 C-198.85322266 355.60611328 -199.26894531 354.96222656 -199.69726562 354.29882812 C-208.85649455 339.99811607 -216.59085158 324.54298831 -221.4375 308.25 C-221.89490365 306.92800438 -222.35758348 305.60782785 -222.82421875 304.2890625 C-226.15735442 294.66472622 -228.44171311 285.0241845 -230.25 275 C-230.56022095 273.2974707 -230.56022095 273.2974707 -230.87670898 271.56054688 C-235.35120742 245.43263845 -235.12483838 217.34251997 -230.4375 191.25 C-230.28764648 190.40663086 -230.13779297 189.56326172 -229.98339844 188.69433594 C-220.09402625 134.62823534 -188.62966353 82.20091366 -144.4375 49.25 C-143.57511719 48.59386719 -142.71273437 47.93773437 -141.82421875 47.26171875 C-134.60563767 41.8817343 -127.08883018 36.98452475 -119.4375 32.25 C-118.35984375 31.5796875 -117.2821875 30.909375 -116.171875 30.21875 C-101.63019032 21.53508996 -85.66690282 15.03360228 -69.4375 10.25 C-68.62200684 10.00652832 -67.80651367 9.76305664 -66.96630859 9.51220703 C-44.76384931 2.95487796 -23.17151979 0.02046433 0 0 Z " fill="#23333F" transform="translate(495.4375,269.75)"/>
<path d="M0 0 C6.08727151 2.37018761 9.34410763 5.8417964 12.14585114 11.60995483 C13.72537434 16.02971343 13.52029357 20.45274365 13.45410156 25.09765625 C13.45468567 26.18147079 13.45526978 27.26528534 13.45587158 28.38194275 C13.45309851 31.94246125 13.42204187 35.50212884 13.390625 39.0625 C13.38315989 41.53970889 13.37746823 44.01692371 13.37347412 46.49414062 C13.35823929 52.99782767 13.31897538 59.50115448 13.2746582 66.00469971 C13.2336594 72.64762155 13.21545326 79.29057872 13.1953125 85.93359375 C13.15247958 98.95588239 13.08502833 111.97792199 13 125 C13.62471191 125.30760254 14.24942383 125.61520508 14.89306641 125.93212891 C23.54581178 130.31765709 27.45423366 137.99182714 30.6796875 146.87109375 C31.28285431 150.87994634 30.87592157 155.02943836 30.609375 159.06835938 C30.49041717 163.03485963 30.74874929 164.69942658 33.328125 167.78515625 C34.20984375 168.51605469 35.0915625 169.24695313 36 170 C37.01599531 171.15276391 38.0184944 172.31773189 39 173.5 C42.70130687 177.85889946 46.68524295 181.75084781 51 185.5 C55.33143156 189.2636409 59.31665476 193.15931318 63 197.5625 C64.76903734 199.66097542 66.33902899 201.27122319 68.5 203 C74.40955655 207.72764524 79.20496308 213.48381789 80.31640625 221.1953125 C80.60765803 226.73849153 79.51221321 230.67976227 76 235 C71.6913419 239.34321953 67.451387 242.26962806 61.25 242.4375 C60.45078125 242.47746094 59.6515625 242.51742187 58.828125 242.55859375 C50.43821834 240.9014713 44.64350992 233.92575518 39.0324955 227.98290253 C37.58148765 226.4508046 36.11671583 224.93317467 34.64701843 223.41900635 C30.4737185 219.11859547 26.30939281 214.81060122 22.19458008 210.45410156 C19.66354132 207.77650092 17.10327275 205.12998869 14.5222683 202.50055695 C13.55310173 201.50195294 12.59493103 200.49253979 11.64898109 199.4719162 C6.54599388 193.97519722 2.84869402 190.51972703 -4.82739258 189.97753906 C-6.38651115 190.0017392 -6.38651115 190.0017392 -7.97712708 190.02642822 C-15.89772275 189.95718043 -22.61539621 186.30315917 -28.21875 180.91796875 C-36.80715498 171.67036602 -39.79417922 163.48720936 -39.34765625 150.9140625 C-38.61426027 142.6571774 -35.05932935 134.80180786 -29 129 C-27.67754613 128.62582805 -26.34402725 128.28719268 -25 128 C-25.00460896 127.41469513 -25.00921793 126.82939026 -25.01396656 126.22634888 C-25.12455572 111.96169203 -25.20720979 97.69707354 -25.25906086 83.43208313 C-25.28480451 76.53350393 -25.31988064 69.6352115 -25.37719727 62.73681641 C-25.43249826 56.07782048 -25.46143332 49.41918379 -25.47438622 42.75994873 C-25.48361543 40.22104202 -25.501638 37.68215136 -25.52865028 35.14337158 C-25.56501597 31.58350586 -25.5699419 28.02486573 -25.56762695 24.46484375 C-25.58560333 23.41827103 -25.60357971 22.3716983 -25.62210083 21.29341125 C-25.57510512 14.60215217 -24.35512606 10.16579547 -20 5 C-13.74068007 -0.67705761 -8.29836542 -0.98019683 0 0 Z " fill="#24333F" transform="translate(496,359)"/>
<path d="M0 0 C3.3792573 2.03005291 6.22397384 4.44794768 8 8 C8.79674298 14.71540516 8.79674298 14.71540516 6.73046875 18.046875 C1.90126272 23.73382322 1.90126272 23.73382322 -1.953125 24.2734375 C-6.20719718 24.46154273 -9.09982354 24.43570087 -12.5 21.6875 C-16.14158814 17.77279275 -16.39287308 14.42654891 -16.359375 9.29296875 C-15.74961638 5.40244364 -13.81165184 3.67776365 -11 1 C-7.48308711 -0.75845645 -3.82789463 -0.68065337 0 0 Z " fill="#F3F6F7" transform="translate(496,502)"/>
<path d="M0 0 C1.06598306 3.19794918 1.07765723 3.9476087 0 7 C-1.19140625 8.921875 -1.19140625 8.921875 -2.5625 10.75 C-3.01753906 11.36359375 -3.47257813 11.9771875 -3.94140625 12.609375 C-4.29074219 13.06828125 -4.64007812 13.5271875 -5 14 C-5.99 13.67 -6.98 13.34 -8 13 C-8.0825 13.61875 -8.165 14.2375 -8.25 14.875 C-9 17 -9 17 -11.0625 18.25 C-11.701875 18.4975 -12.34125 18.745 -13 19 C-12.67 19.99 -12.34 20.98 -12 22 C-12.7425 22.4125 -13.485 22.825 -14.25 23.25 C-16.92530122 24.95246441 -18.84038948 26.69641545 -21 29 C-22 30 -23 31 -24 32 C-24.66 31.34 -25.32 30.68 -26 30 C-25.38253906 29.40574219 -24.76507812 28.81148437 -24.12890625 28.19921875 C-17.92912827 22.13155172 -12.36173476 15.8258247 -7 9 C-6.30132813 8.11054687 -5.60265625 7.22109375 -4.8828125 6.3046875 C-3.24713221 4.2091774 -1.61903102 2.10838445 0 0 Z " fill="#EBF0F3" transform="translate(682,639)"/>
<path d="M0 0 C0.515625 0.391875 1.03125 0.78375 1.5625 1.1875 C0.9025 1.1875 0.2425 1.1875 -0.4375 1.1875 C-0.4375 2.1775 -0.4375 3.1675 -0.4375 4.1875 C-6.59134615 7.3875 -6.59134615 7.3875 -10.875 6.375 C-11.720625 5.983125 -12.56625 5.59125 -13.4375 5.1875 C-9.70730751 2.05413831 -4.94445437 -1.64815146 0 0 Z " fill="#2B3944" transform="translate(406.4375,288.8125)"/>
<path d="M0 0 C0.66 0.66 1.32 1.32 2 2 C0.43902526 3.1063219 -1.12385327 4.20995785 -2.6875 5.3125 C-3.55761719 5.92738281 -4.42773438 6.54226563 -5.32421875 7.17578125 C-6.20722656 7.77777344 -7.09023438 8.37976563 -8 9 C-8.85207031 9.61230469 -9.70414063 10.22460938 -10.58203125 10.85546875 C-13 12 -13 12 -15.3125 11.1875 C-15.869375 10.795625 -16.42625 10.40375 -17 10 C-16.39671875 9.75765625 -15.7934375 9.5153125 -15.171875 9.265625 C-10.61812346 7.35598726 -7.3489019 5.72100211 -4 2 C-1.75 0.75 -1.75 0.75 0 0 Z " fill="#E5EBEF" transform="translate(607,658)"/>
<path d="M0 0 C0.98613281 0.00322266 1.97226562 0.00644531 2.98828125 0.00976562 C4.02082031 0.01814453 5.05335938 0.02652344 6.1171875 0.03515625 C7.67759766 0.04192383 7.67759766 0.04192383 9.26953125 0.04882812 C11.84380712 0.06063673 14.41796896 0.0771055 16.9921875 0.09765625 C12.64825542 2.52712657 8.75330188 2.60836787 3.8671875 2.84765625 C3.04347656 2.90308594 2.21976562 2.95851563 1.37109375 3.015625 C-0.75228938 3.13030854 -2.88148118 3.12262296 -5.0078125 3.09765625 C-5.6678125 2.43765625 -6.3278125 1.77765625 -7.0078125 1.09765625 C-4.50284246 -0.15482877 -2.79927976 -0.01608781 0 0 Z " fill="#313B44" transform="translate(471.0078125,306.90234375)"/>
<path d="M0 0 C0.66 0.99 1.32 1.98 2 3 C1.34 3 0.68 3 0 3 C-0.33 3.66 -0.66 4.32 -1 5 C-2.64639965 6.35827971 -4.31295807 7.69254251 -6 9 C-6.33 9.33 -6.66 9.66 -7 10 C-8.32520503 10.68268138 -9.65812182 11.3507041 -11 12 C-11.66 11.34 -12.32 10.68 -13 10 C-11.71802734 9.04287109 -11.71802734 9.04287109 -10.41015625 8.06640625 C-9.29423934 7.23181293 -8.17835564 6.39717522 -7.0625 5.5625 C-6.21655273 4.93118164 -6.21655273 4.93118164 -5.35351562 4.28710938 C-2.57122778 2.26901433 -2.57122778 2.26901433 0 0 Z " fill="#E6EDEF" transform="translate(641,682)"/>
<path d="M0 0 C-0.804375 0.28875 -1.60875 0.5775 -2.4375 0.875 C-5.1326468 1.73262568 -5.1326468 1.73262568 -6 4 C-7.33333333 4.33333333 -8.66666667 4.66666667 -10 5 C-10.33 5.66 -10.66 6.32 -11 7 C-13.31 6.67 -15.62 6.34 -18 6 C-15.14160085 3.69740069 -12.39581962 2.13731655 -9 0.75 C-8.154375 0.39421875 -7.30875 0.0384375 -6.4375 -0.328125 C-3.81117065 -1.05204912 -2.52787043 -0.9128421 0 0 Z " fill="#E3E9ED" transform="translate(432,320)"/>
<path d="M0 0 C3.26008643 3.16952847 6.22237877 6.39937989 9 10 C8.34 11.65 7.68 13.3 7 15 C4.02765884 12.54458774 3.70514483 10.70201035 3 7 C2.02308143 5.31970006 1.02611949 3.65071396 0 2 C0 1.34 0 0.68 0 0 Z " fill="#2E3C45" transform="translate(349,632)"/>
<path d="M0 0 C1.33333333 0.66666667 2.66666667 1.33333333 4 2 C5.0828125 2.433125 5.0828125 2.433125 6.1875 2.875 C8 4 8 4 8.75 5.9375 C9 8 9 8 9 11 C1.51708428 4.84965831 1.51708428 4.84965831 -1 1 C-0.67 0.67 -0.34 0.34 0 0 Z " fill="#E3EAEB" transform="translate(352,633)"/>
<path d="M0 0 C0.66 1.32 1.32 2.64 2 4 C-0.64 7.3 -3.28 10.6 -6 14 C-6.66 12.68 -7.32 11.36 -8 10 C-6.625 8.5 -6.625 8.5 -5 7 C-4.34 7 -3.68 7 -3 7 C-3 6.01 -3 5.02 -3 4 C-2.34 3.67 -1.68 3.34 -1 3 C-0.67 2.01 -0.34 1.02 0 0 Z " fill="#E8ECED" transform="translate(316,348)"/>
<path d="M0 0 C4.03174806 0.27489191 5.56894631 0.53491576 8.375 3.5625 C8.91125 4.366875 9.4475 5.17125 10 6 C9.34 6 8.68 6 8 6 C7.67 6.99 7.34 7.98 7 9 C5.83037314 7.69013727 4.66437056 6.3770374 3.5 5.0625 C2.8503125 4.33160156 2.200625 3.60070312 1.53125 2.84765625 C0 1 0 1 0 0 Z " fill="#2D3A45" transform="translate(309,643)"/>
<path d="M0 0 C1.11375 0.3403125 1.11375 0.3403125 2.25 0.6875 C1.59 1.3475 0.93 2.0075 0.25 2.6875 C1.24 3.6775 2.23 4.6675 3.25 5.6875 C1.625 6.4375 1.625 6.4375 -0.75 6.6875 C-4 4.75 -4 4.75 -6.75 2.6875 C-4.29511132 0.41445492 -3.41240272 -0.38777304 0 0 Z " fill="#333E47" transform="translate(476.75,539.3125)"/>
<path d="M0 0 C-1.15173355 2.46800047 -2.04783565 4.04783565 -4 6 C-4.33 6.99 -4.66 7.98 -5 9 C-4.34 9.33 -3.68 9.66 -3 10 C-3.99 10.33 -4.98 10.66 -6 11 C-6.33 10.67 -6.66 10.34 -7 10 C-7.66 10.99 -8.32 11.98 -9 13 C-9.73828125 11.296875 -9.73828125 11.296875 -10 9 C-8.41796875 6.640625 -8.41796875 6.640625 -6.1875 4.25 C-5.45917969 3.45078125 -4.73085938 2.6515625 -3.98046875 1.828125 C-2 0 -2 0 0 0 Z " fill="#E8EBEE" transform="translate(351,373)"/>
<path d="M0 0 C1 3 1 3 0.1875 5.0625 C-1 7 -1 7 -3 9 C-4.32 9 -5.64 9 -7 9 C-7.66 8.34 -8.32 7.68 -9 7 C-6.03 4.69 -3.06 2.38 0 0 Z " fill="#ECEEF0" transform="translate(377,347)"/>
<path d="M0 0 C0.66 0.99 1.32 1.98 2 3 C0.73548068 4.31858428 -0.53685475 5.62967631 -1.8125 6.9375 C-2.52019531 7.66839844 -3.22789062 8.39929688 -3.95703125 9.15234375 C-6 11 -6 11 -9 12 C-8.34 10.35 -7.68 8.7 -7 7 C-6.34 7 -5.68 7 -5 7 C-4.67 6.01 -4.34 5.02 -4 4 C-3.34 4 -2.68 4 -2 4 C-1.34 2.68 -0.68 1.36 0 0 Z " fill="#343E46" transform="translate(657,664)"/>
<path d="M0 0 C7.48291572 6.15034169 7.48291572 6.15034169 10 10 C9.01 10.33 8.02 10.66 7 11 C4.33333333 8.33333333 1.66666667 5.66666667 -1 3 C-0.67 2.01 -0.34 1.02 0 0 Z " fill="#E0E6E8" transform="translate(532,584)"/>
<path d="M0 0 C3.21524305 1.40844718 5.32183868 3.10344786 7.75 5.625 C8.67039062 6.57246094 8.67039062 6.57246094 9.609375 7.5390625 C10.29773438 8.26222656 10.29773438 8.26222656 11 9 C10.34 9.66 9.68 10.32 9 11 C6.5 9.1875 6.5 9.1875 4 7 C4 6.01 4 5.02 4 4 C2.68 3.67 1.36 3.34 0 3 C0 2.01 0 1.02 0 0 Z " fill="#DFE6E8" transform="translate(496,549)"/>
<path d="M0 0 C0 0.99 0 1.98 0 3 C0.66 3.33 1.32 3.66 2 4 C-0.64 4.33 -3.28 4.66 -6 5 C-6.33 4.01 -6.66 3.02 -7 2 C-8.65 2 -10.3 2 -12 2 C-12 1.67 -12 1.34 -12 1 C-7.915021 0.45533613 -4.1274515 0 0 0 Z " fill="#36414A" transform="translate(460,273)"/>
<path d="M0 0 C0.66 0.99 1.32 1.98 2 3 C-0.97 5.97 -3.94 8.94 -7 12 C-7.66 11.34 -8.32 10.68 -9 10 C-7.71937515 8.2925002 -6.38232443 6.62626404 -5 5 C-4.34 5 -3.68 5 -3 5 C-2.67 4.01 -2.34 3.02 -2 2 C-1.34 2 -0.68 2 0 2 C0 1.34 0 0.68 0 0 Z " fill="#E3E8EA" transform="translate(329,335)"/>
<path d="M0 0 C2 1 2 1 3 3 C-2.37330889 6.39366878 -6.86946489 6.32712342 -13 6 C-13 5.67 -13 5.34 -13 5 C-9.92382812 4.70703125 -9.92382812 4.70703125 -6.84765625 4.4140625 C-6.23792969 4.27742187 -5.62820313 4.14078125 -5 4 C-4.67 3.34 -4.34 2.68 -4 2 C-2.0625 0.8125 -2.0625 0.8125 0 0 Z " fill="#454D53" transform="translate(565,595)"/>
<path d="M0 0 C1.28835769 3.86507308 0.56002478 5.2856553 -1 9 C-3.125 11.875 -3.125 11.875 -5 14 C-5.68359375 12.328125 -5.68359375 12.328125 -6 10 C-4.78515625 7.421875 -4.78515625 7.421875 -3.0625 4.75 C-2.49660156 3.85796875 -1.93070312 2.9659375 -1.34765625 2.046875 C-0.90292969 1.37140625 -0.45820313 0.6959375 0 0 Z " fill="#354049" transform="translate(294,384)"/>
<path d="M0 0 C1.5625 1.25 1.5625 1.25 3 3 C2.875 5.125 2.875 5.125 2 7 C1.01 7.33 0.02 7.66 -1 8 C-1.99 6.68 -2.98 5.36 -4 4 C-2.68 2.68 -1.36 1.36 0 0 Z " fill="#2D3943" transform="translate(324,344)"/>
<path d="M0 0 C1.65 0 3.3 0 5 0 C5.66 1.32 6.32 2.64 7 4 C7.99 3.67 8.98 3.34 10 3 C10 3.99 10 4.98 10 6 C6.37 5.01 2.74 4.02 -1 3 C-0.67 2.01 -0.34 1.02 0 0 Z " fill="#343F48" transform="translate(554,315)"/>
<path d="M0 0 C1.75570312 0.02707031 1.75570312 0.02707031 3.546875 0.0546875 C4.88492188 0.08949219 4.88492188 0.08949219 6.25 0.125 C3.31482551 1.78022397 0.9750642 2.42420064 -2.375 2.6875 C-5.68666003 2.94384544 -5.68666003 2.94384544 -8.75 4.125 C-9.41 3.465 -10.07 2.805 -10.75 2.125 C-7.15537669 -0.13498595 -4.18404325 -0.08368087 0 0 Z " fill="#3F494D" transform="translate(673.75,599.875)"/>
<path d="M0 0 C0.66 0 1.32 0 2 0 C1.34 5.94 0.68 11.88 0 18 C-0.33 18 -0.66 18 -1 18 C-1 13.71 -1 9.42 -1 5 C-1.66 4.67 -2.32 4.34 -3 4 C-2.67 3.01 -2.34 2.02 -2 1 C-1.67 1.33 -1.34 1.66 -1 2 C-0.67 1.34 -0.34 0.68 0 0 Z " fill="#313B44" transform="translate(301,466)"/>
<path d="M0 0 C1.88649506 3.26992478 2.67972144 6.23672696 3 10 C1 13 1 13 -1 14 C-1.027193 12.41676312 -1.04648306 10.83338938 -1.0625 9.25 C-1.07410156 8.36828125 -1.08570313 7.4865625 -1.09765625 6.578125 C-1.00826198 4.2181162 -0.66912821 2.25501476 0 0 Z " fill="#3A464F" transform="translate(307,556)"/>
<path d="M0 0 C1.98 1.65 3.96 3.3 6 5 C3.00468461 5.99843846 1.82744268 6.00732761 -1.1875 5.5625 C-2.445625 5.376875 -3.70375 5.19125 -5 5 C-3.35 3.35 -1.7 1.7 0 0 Z " fill="#DBE3E7" transform="translate(626,360)"/>
<path d="M0 0 C0.66 0.33 1.32 0.66 2 1 C2 3.97 2 6.94 2 10 C1.34 10 0.68 10 0 10 C-1.38232443 8.37373596 -2.71937515 6.7074998 -4 5 C-3.34 5 -2.68 5 -2 5 C-1.34 3.35 -0.68 1.7 0 0 Z " fill="#D5DCDF" transform="translate(658,329)"/>
<path d="M0 0 C0.33 0 0.66 0 1 0 C1.66 5.28 2.32 10.56 3 16 C0.04816899 13.04816899 -0.08663988 10.04488053 -1 6 C-1.66 6 -2.32 6 -3 6 C-3 5.34 -3 4.68 -3 4 C-2.01 4 -1.02 4 0 4 C0 2.68 0 1.36 0 0 Z " fill="#475057" transform="translate(301,528)"/>
<path d="M0 0 C-1.62170379 1.00533667 -3.24747237 2.00411907 -4.875 3 C-6.23238281 3.8353125 -6.23238281 3.8353125 -7.6171875 4.6875 C-10 6 -10 6 -12 6 C-11.9375 4.1875 -11.9375 4.1875 -11 2 C-6.92989212 -0.22704016 -4.44681165 -1.4430051 0 0 Z " fill="#E8EDF0" transform="translate(388,296)"/>
<path d="M0 0 C1.11375 0.598125 2.2275 1.19625 3.375 1.8125 C4.00148438 2.14894531 4.62796875 2.48539062 5.2734375 2.83203125 C7 4 7 4 9 7 C4.86356447 7 4.30197567 6.84767359 1.25 4.5 C0.63640625 4.0359375 0.0228125 3.571875 -0.609375 3.09375 C-1.06828125 2.7328125 -1.5271875 2.371875 -2 2 C-1.34 1.34 -0.68 0.68 0 0 Z " fill="#DFE4E7" transform="translate(628,310)"/>
<path d="M0 0 C1.32 0.33 2.64 0.66 4 1 C3.34 1 2.68 1 2 1 C2.33 1.99 2.66 2.98 3 4 C0.69 5.32 -1.62 6.64 -4 8 C-4.66 7.34 -5.32 6.68 -6 6 C-5.195625 5.38125 -4.39125 4.7625 -3.5625 4.125 C-0.96125481 2.25835959 -0.96125481 2.25835959 0 0 Z " fill="#E9EFF2" transform="translate(368,302)"/>
<path d="M0 0 C0.99 0.33 1.98 0.66 3 1 C2.04578192 2.14926266 1.08647955 3.29430541 0.125 4.4375 C-0.40867187 5.07558594 -0.94234375 5.71367188 -1.4921875 6.37109375 C-3 8 -3 8 -5 9 C-4.75 6.625 -4.75 6.625 -4 4 C-1.9375 2.6875 -1.9375 2.6875 0 2 C0 1.34 0 0.68 0 0 Z " fill="#374149" transform="translate(664,657)"/>
<path d="M0 0 C0.33 0.99 0.66 1.98 1 3 C-0.09276121 5.18552242 -1.24399801 6.30903512 -3 8 C-3.721875 8.721875 -4.44375 9.44375 -5.1875 10.1875 C-6.0846875 11.0846875 -6.0846875 11.0846875 -7 12 C-7.66 11.67 -8.32 11.34 -9 11 C-6.03 7.37 -3.06 3.74 0 0 Z " fill="#DDE3E7" transform="translate(682,639)"/>
<path d="M0 0 C2.93200474 2.85276137 5.64315404 5.65079784 8 9 C7.01 9.33 6.02 9.66 5 10 C5 9.34 5 8.68 5 8 C3.68 8.33 2.36 8.66 1 9 C1.020625 8.071875 1.04125 7.14375 1.0625 6.1875 C1.15769604 2.97713989 1.15769604 2.97713989 0 0 Z " fill="#3A4249" transform="translate(341,623)"/>
<path d="M0 0 C2.97 0 5.94 0 9 0 C9 0.99 9 1.98 9 3 C4.545 3.495 4.545 3.495 0 4 C0 2.68 0 1.36 0 0 Z " fill="#2E3B42" transform="translate(636,402)"/>
<path d="M0 0 C1.32 0.66 2.64 1.32 4 2 C2.47058649 5.05882701 0.05780454 5.68951234 -3 7 C-3.66 6.67 -4.32 6.34 -5 6 C-5 5.34 -5 4.68 -5 4 C-3.37373596 2.61767557 -1.7074998 1.28062485 0 0 Z " fill="#303D47" transform="translate(360,312)"/>
<path d="M0 0 C0 0.66 0 1.32 0 2 C0.66 2 1.32 2 2 2 C2.33 1.34 2.66 0.68 3 0 C3 0.99 3 1.98 3 3 C3.33 3.99 3.66 4.98 4 6 C1 6 1 6 -1.6875 3.5 C-2.450625 2.675 -3.21375 1.85 -4 1 C-2 0 -2 0 0 0 Z " fill="#EAEFF2" transform="translate(516,484)"/>
<path d="M0 0 C2.31 0.33 4.62 0.66 7 1 C2.375 5.875 2.375 5.875 -1 7 C-1.33 6.34 -1.66 5.68 -2 5 C-1.34 4.67 -0.68 4.34 0 4 C0 2.68 0 1.36 0 0 Z " fill="#343F49" transform="translate(369,347)"/>
<path d="M0 0 C2.3125 0.1875 2.3125 0.1875 5 1 C6.8125 3.5625 6.8125 3.5625 8 6 C4.00095031 6 2.19799578 4.27413033 -1 2 C-0.67 1.34 -0.34 0.68 0 0 Z " fill="#E3E9EA" transform="translate(618,304)"/>
<path d="M0 0 C2.475 0.99 2.475 0.99 5 2 C5 2.99 5 3.98 5 5 C4.01 5.495 4.01 5.495 3 6 C1.35 4.68 -0.3 3.36 -2 2 C-1.34 2 -0.68 2 0 2 C0 1.34 0 0.68 0 0 Z " fill="#333E46" transform="translate(374,698)"/>
<path d="M0 0 C0.33 0.66 0.66 1.32 1 2 C0.67 2.66 0.34 3.32 0 4 C0.99 4 1.98 4 3 4 C3 4.99 3 5.98 3 7 C0.625 6.8125 0.625 6.8125 -2 6 C-3.3125 3.4375 -3.3125 3.4375 -4 1 C-2.68 0.67 -1.36 0.34 0 0 Z " fill="#323D46" transform="translate(292,609)"/>
<path d="M0 0 C0.99 0.33 1.98 0.66 3 1 C2.34 5.29 1.68 9.58 1 14 C0.67 14 0.34 14 0 14 C-0.19456705 12.04235617 -0.38044247 10.08384679 -0.5625 8.125 C-0.66691406 7.03445313 -0.77132812 5.94390625 -0.87890625 4.8203125 C-1 2 -1 2 0 0 Z " fill="#E6EBEF" transform="translate(597,372)"/>
<path d="M0 0 C-0.625 1.9375 -0.625 1.9375 -2 4 C-5.125 4.75 -5.125 4.75 -8 5 C-8.66 4.01 -9.32 3.02 -10 2 C-8.7090864 1.66376204 -7.41723903 1.33110751 -6.125 1 C-5.40570313 0.814375 -4.68640625 0.62875 -3.9453125 0.4375 C-2 0 -2 0 0 0 Z " fill="#303A42" transform="translate(432,279)"/>
<path d="M0 0 C2.31 1.65 4.62 3.3 7 5 C5.02 5.99 5.02 5.99 3 7 C1.68 6.01 0.36 5.02 -1 4 C-0.67 2.68 -0.34 1.36 0 0 Z " fill="#36424B" transform="translate(365,648)"/>
<path d="M0 0 C0.33 0 0.66 0 1 0 C1.33 4.62 1.66 9.24 2 14 C1.67 13.34 1.34 12.68 1 12 C0.01 11.67 -0.98 11.34 -2 11 C-1.34 7.37 -0.68 3.74 0 0 Z " fill="#DADFE2" transform="translate(692,616)"/>
<path d="M0 0 C0.66 0 1.32 0 2 0 C2 0.66 2 1.32 2 2 C2.66 2 3.32 2 4 2 C4.66 3.65 5.32 5.3 6 7 C5.01 7.33 4.02 7.66 3 8 C0 3.375 0 3.375 0 0 Z " fill="#F0F4F6" transform="translate(688,604)"/>
<path d="M0 0 C-2.3125 2.5 -2.3125 2.5 -5 5 C-5.99 5 -6.98 5 -8 5 C-7.34 4.01 -6.68 3.02 -6 2 C-6.33 1.34 -6.66 0.68 -7 0 C-4.3333581 -1.33332095 -2.83319697 -0.67102033 0 0 Z " fill="#E9EFF0" transform="translate(665,601)"/>
<path d="M0 0 C2.95183101 2.95183101 3.08663988 5.95511947 4 10 C2.68 10 1.36 10 0 10 C-0.33 8.68 -0.66 7.36 -1 6 C-0.34 6 0.32 6 1 6 C0.67 4.02 0.34 2.04 0 0 Z " fill="#DFE3E6" transform="translate(274,578)"/>
<path d="M0 0 C0.66 0.99 1.32 1.98 2 3 C0.375 5 0.375 5 -2 7 C-5.25 7.25 -5.25 7.25 -8 7 C-3.25 3 -3.25 3 -1 3 C-0.67 2.01 -0.34 1.02 0 0 Z " fill="#DBE2E5" transform="translate(692,405)"/>
<path d="M0 0 C0.66 1.32 1.32 2.64 2 4 C0.35 5.65 -1.3 7.3 -3 9 C-3 4.72290301 -2.29379749 3.44069624 0 0 Z " fill="#313B43" transform="translate(342,376)"/>
<path d="M0 0 C2.64 0 5.28 0 8 0 C8 0.66 8 1.32 8 2 C9.65 1.67 11.3 1.34 13 1 C13 1.66 13 2.32 13 3 C8.17639811 3.19294408 4.50353262 2.75747614 0 1 C0 0.67 0 0.34 0 0 Z " fill="#424A52" transform="translate(452,730)"/>
<path d="M0 0 C1.33804688 0.04060547 1.33804688 0.04060547 2.703125 0.08203125 C3.37859375 0.11683594 4.0540625 0.15164063 4.75 0.1875 C4.75 0.5175 4.75 0.8475 4.75 1.1875 C3.1 1.5175 1.45 1.8475 -0.25 2.1875 C-0.25 2.5175 -0.25 2.8475 -0.25 3.1875 C-3.22 3.1875 -6.19 3.1875 -9.25 3.1875 C-6.10408067 0.38704377 -4.182936 -0.16511589 0 0 Z " fill="#525B62" transform="translate(678.25,314.8125)"/>
<path d="M0 0 C2.31 0.33 4.62 0.66 7 1 C4.53721199 3.46278801 2.29323018 3.99771255 -1 5 C-0.67 3.35 -0.34 1.7 0 0 Z " fill="#EAEEF0" transform="translate(568,678)"/>
<path d="M0 0 C-0.33 0.99 -0.66 1.98 -1 3 C-3.97 3 -6.94 3 -10 3 C-10 2.34 -10 1.68 -10 1 C-2.25 0 -2.25 0 0 0 Z " fill="#454E52" transform="translate(682,410)"/>
<path d="M0 0 C0.66 0.33 1.32 0.66 2 1 C1.34 2.98 0.68 4.96 0 7 C-1.32 7 -2.64 7 -4 7 C-2.92598892 4.08482708 -2.22189824 2.22189824 0 0 Z " fill="#E7E7E8" transform="translate(339,385)"/>
<path d="M0 0 C1.32 1.32 2.64 2.64 4 4 C3.34 5.32 2.68 6.64 2 8 C1.896875 7.360625 1.79375 6.72125 1.6875 6.0625 C1.460625 5.381875 1.23375 4.70125 1 4 C0.01 3.67 -0.98 3.34 -2 3 C-1.34 2.01 -0.68 1.02 0 0 Z " fill="#2E3C48" transform="translate(604,368)"/>
<path d="M0 0 C2.97 0.495 2.97 0.495 6 1 C5.67 1.66 5.34 2.32 5 3 C5.89163577 5.11683841 5.89163577 5.11683841 7 7 C3.42895561 5.12050295 1.45255699 3.82946843 0 0 Z " fill="#36414A" transform="translate(613,347)"/>
<path d="M0 0 C0 1.32 0 2.64 0 4 C-1.65 4.33 -3.3 4.66 -5 5 C-4.67 4.01 -4.34 3.02 -4 2 C-4.66 1.34 -5.32 0.68 -6 0 C-3 -1 -3 -1 0 0 Z " fill="#2A3945" transform="translate(434,314)"/>
<path d="M0 0 C2.31 0.33 4.62 0.66 7 1 C7.33 2.32 7.66 3.64 8 5 C5 5 5 5 2.3125 2.5 C1.549375 1.675 0.78625 0.85 0 0 Z " fill="#E6EEF3" transform="translate(368,650)"/>
<path d="M0 0 C2.15377564 2.62198774 3.40072174 4.64404172 4 8 C1.525 7.01 1.525 7.01 -1 6 C-0.67 4.02 -0.34 2.04 0 0 Z " fill="#D8DDE0" transform="translate(283,600)"/>
<path d="M0 0 C0.66 0 1.32 0 2 0 C2 2.97 2 5.94 2 9 C1.34 9 0.68 9 0 9 C-1.10844919 5.67465243 -0.84454356 3.37817425 0 0 Z " fill="#38434C" transform="translate(574,578)"/>
<path d="M0 0 C2.31 1.98 4.62 3.96 7 6 C6.34 6.66 5.68 7.32 5 8 C4.34 7.67 3.68 7.34 3 7 C3 6.01 3 5.02 3 4 C2.01 4 1.02 4 0 4 C0 2.68 0 1.36 0 0 Z " fill="#DCE2E5" transform="translate(516,568)"/>
<path d="M0 0 C2 3 2 3 1.75 6.625 C1.5025 7.73875 1.255 8.8525 1 10 C0.01 10.495 0.01 10.495 -1 11 C-0.67 7.37 -0.34 3.74 0 0 Z " fill="#39434B" transform="translate(524,501)"/>
<path d="M0 0 C0.99 0 1.98 0 3 0 C2.34 1.98 1.68 3.96 1 6 C0.01 6 -0.98 6 -2 6 C-2 3 -2 3 0 0 Z " fill="#384148" transform="translate(693,398)"/>
<path d="M0 0 C1.32 0 2.64 0 4 0 C2.70700306 2.88437779 1.34058637 4.87219421 -1 7 C-1.33 6.34 -1.66 5.68 -2 5 C-1.0625 2.375 -1.0625 2.375 0 0 Z " fill="#2A3036" transform="translate(335,384)"/>
<path d="M0 0 C-0.99 0.33 -1.98 0.66 -3 1 C-3 1.66 -3 2.32 -3 3 C-5.97 2.505 -5.97 2.505 -9 2 C-4.13793103 -1.24137931 -4.13793103 -1.24137931 0 0 Z " fill="#364048" transform="translate(574,682)"/>
<path d="M0 0 C2.5654594 2.5654594 2.54046087 4.47686668 3 8 C2.01 8 1.02 8 0 8 C-0.98120464 4.94736336 -0.98120464 3.05263664 0 0 Z " fill="#394650" transform="translate(310,566)"/>
<path d="M0 0 C0.99 0.33 1.98 0.66 3 1 C2.67 3.31 2.34 5.62 2 8 C1.01 7.34 0.02 6.68 -1 6 C-0.67 4.02 -0.34 2.04 0 0 Z " fill="#323B43" transform="translate(661,326)"/>
<path d="M0 0 C2.97 0.495 2.97 0.495 6 1 C6.33 1.99 6.66 2.98 7 4 C4.03 3.505 4.03 3.505 1 3 C0.67 2.01 0.34 1.02 0 0 Z " fill="#F3F5F7" transform="translate(418,723)"/>
<path d="M0 0 C0.99 0.33 1.98 0.66 3 1 C3.33 1.99 3.66 2.98 4 4 C3.01 4.33 2.02 4.66 1 5 C-1.1875 3.5625 -1.1875 3.5625 -3 2 C-2.01 1.34 -1.02 0.68 0 0 Z " fill="#333F49" transform="translate(391,707)"/>
<path d="M0 0 C2.31 0.33 4.62 0.66 7 1 C3.375 4 3.375 4 0 4 C0 2.68 0 1.36 0 0 Z " fill="#353D43" transform="translate(441,690)"/>
<path d="M0 0 C1.65 0 3.3 0 5 0 C5 0.66 5 1.32 5 2 C5.99 1.67 6.98 1.34 8 1 C7.34 2.32 6.68 3.64 6 5 C3.98079663 3.69593116 1.98075027 2.36176581 0 1 C0 0.67 0 0.34 0 0 Z " fill="#344049" transform="translate(352,686)"/>
<path d="M0 0 C2.375 -0.125 2.375 -0.125 5 0 C5.66 0.66 6.32 1.32 7 2 C7.66 2 8.32 2 9 2 C9 2.66 9 3.32 9 4 C8.01 4.33 7.02 4.66 6 5 C2.8125 3.125 2.8125 3.125 0 1 C0 0.67 0 0.34 0 0 Z " fill="#DCE1E5" transform="translate(379,659)"/>
<path d="M0 0 C0.99 0.99 1.98 1.98 3 3 C0.03 5.475 0.03 5.475 -3 8 C-3 7.01 -3 6.02 -3 5 C-2.34 5 -1.68 5 -1 5 C-0.67 3.35 -0.34 1.7 0 0 Z " fill="#E8EDF1" transform="translate(625,641)"/>
<path d="M0 0 C1.85776765 3.13498292 2.20140476 5.37471432 2 9 C1.01 9 0.02 9 -1 9 C-2.60031344 5.79937313 -1.03173691 3.27728194 0 0 Z " fill="#D5DCDE" transform="translate(308,444)"/>
<path d="M0 0 C0.66 0.33 1.32 0.66 2 1 C1.34 2.65 0.68 4.3 0 6 C-1.32 5.34 -2.64 4.68 -4 4 C-2.68 2.68 -1.36 1.36 0 0 Z " fill="#E0E5E5" transform="translate(359,362)"/>
<path d="M0 0 C0.66 0.33 1.32 0.66 2 1 C-0.17424117 3.50037734 -1.73045798 4.43628586 -5 5 C-5.33 4.34 -5.66 3.68 -6 3 C-4.03533587 1.93224776 -2.03144641 0.93446535 0 0 Z " fill="#E8EEF2" transform="translate(606,706)"/>
<path d="M0 0 C2.3431213 0.25561323 4.67843403 0.59270772 7 1 C7.33 1.66 7.66 2.32 8 3 C6.1875 3.625 6.1875 3.625 4 4 C1 2 1 2 0 0 Z " fill="#2F3D48" transform="translate(594,706)"/>
<path d="M0 0 C0.33 1.32 0.66 2.64 1 4 C-0.98 4.99 -0.98 4.99 -3 6 C-3.66 5.34 -4.32 4.68 -5 4 C-3.35 2.68 -1.7 1.36 0 0 Z " fill="#DCE1E5" transform="translate(633,688)"/>
<path d="M0 0 C0.66 0 1.32 0 2 0 C0.8141763 3.37503669 -0.27573689 5.64722731 -3 8 C-3.33 7.01 -3.66 6.02 -4 5 C-3.01 4.67 -2.02 4.34 -1 4 C-0.26676204 1.98491642 -0.26676204 1.98491642 0 0 Z " fill="#374044" transform="translate(689,625)"/>
<path d="M0 0 C1.99097846 2.98646769 2.94124926 5.59687262 4 9 C2.68 8.34 1.36 7.68 0 7 C0 4.69 0 2.38 0 0 Z " fill="#DEE5E8" transform="translate(457,522)"/>
<path d="M0 0 C1.9451 2.91765 2.45276317 4.62537285 3 8 C1.68 7.67 0.36 7.34 -1 7 C-0.67 4.69 -0.34 2.38 0 0 Z " fill="#2A3846" transform="translate(305,440)"/>
<path d="M0 0 C1.31223496 3.93670488 0.24296256 6.12488144 -1 10 C-1.99 9.67 -2.98 9.34 -4 9 C-2.80100302 5.9168649 -1.52299523 2.93720508 0 0 Z " fill="#E1E6E8" transform="translate(327,402)"/>
<path d="M0 0 C1.98 0 3.96 0 6 0 C6.33 0.99 6.66 1.98 7 3 C3 3 3 3 1.25 1.5 C0.8375 1.005 0.425 0.51 0 0 Z " fill="#2F3C47" transform="translate(604,396)"/>
<path d="M0 0 C0.66 0.33 1.32 0.66 2 1 C0.95125002 3.62187494 0.35068687 4.79371361 -2.125 6.25 C-2.74375 6.4975 -3.3625 6.745 -4 7 C-2.68 4.69 -1.36 2.38 0 0 Z " fill="#2F3B43" transform="translate(305,367)"/>
<path d="M0 0 C0.66 0 1.32 0 2 0 C2 0.99 2 1.98 2 3 C-0.5 4.6875 -0.5 4.6875 -3 6 C-3 4.68 -3 3.36 -3 2 C-2.01 2 -1.02 2 0 2 C0 1.34 0 0.68 0 0 Z " fill="#F0F1F2" transform="translate(605,364)"/>
<path d="M0 0 C2.625 0.375 2.625 0.375 5 1 C2.61426621 2.89213369 0.92824652 4.02391783 -2 5 C-2 2 -2 2 0 0 Z " fill="#E8EAEA" transform="translate(667,315)"/>
<path d="M0 0 C2.4375 0.375 2.4375 0.375 5 1 C5.33 1.66 5.66 2.32 6 3 C3.69 3.33 1.38 3.66 -1 4 C-0.67 2.68 -0.34 1.36 0 0 Z " fill="#313E46" transform="translate(436,313)"/>
<path d="M0 0 C0.66 0.33 1.32 0.66 2 1 C2 1.66 2 2.32 2 3 C0.02 3.66 -1.96 4.32 -4 5 C-4.66 4.34 -5.32 3.68 -6 3 C-4.03533587 1.93224776 -2.03144641 0.93446535 0 0 Z " fill="#444E56" transform="translate(390,294)"/>
<path d="M0 0 C-0.33 0.99 -0.66 1.98 -1 3 C-3.97 2.67 -6.94 2.34 -10 2 C-6.00889681 0.0044484 -4.30013434 -0.19546065 0 0 Z " fill="#D9DDE1" transform="translate(556,275)"/>
</svg>
